<svg id="Component_1_1" data-name="Component 1 – 1" xmlns="http://www.w3.org/2000/svg" xmlns:xlink="http://www.w3.org/1999/xlink" width="20" height="20" viewBox="0 0 20 20">
  <defs>
    <clipPath id="clip-path">
      <path id="Path_82" data-name="Path 82" d="M6-12H7a4,4,0,0,1,4,4v2A4,4,0,0,1,7-2H6A4,4,0,0,1,2-6V-8A4,4,0,0,1,6-12Zm0,2A2,2,0,0,0,4-8v2A2,2,0,0,0,6-4H7A2,2,0,0,0,9-6V-8a2,2,0,0,0-2-2ZM5.5-22A3.5,3.5,0,0,1,9-18.5v1A3.5,3.5,0,0,1,5.5-14,3.5,3.5,0,0,1,2-17.5v-1A3.5,3.5,0,0,1,5.5-22Zm0,2A1.5,1.5,0,0,0,4-18.5v1A1.5,1.5,0,0,0,5.5-16,1.5,1.5,0,0,0,7-17.5v-1A1.5,1.5,0,0,0,5.5-20ZM17-13h1a4,4,0,0,1,4,4v3a4,4,0,0,1-4,4H17a4,4,0,0,1-4-4V-9A4,4,0,0,1,17-13Zm0,2a2,2,0,0,0-2,2v3a2,2,0,0,0,2,2h1a2,2,0,0,0,2-2V-9a2,2,0,0,0-2-2ZM14.5-22h4A3.5,3.5,0,0,1,22-18.5,3.5,3.5,0,0,1,18.5-15h-4A3.5,3.5,0,0,1,11-18.5,3.5,3.5,0,0,1,14.5-22Zm0,2A1.5,1.5,0,0,0,13-18.5,1.5,1.5,0,0,0,14.5-17h4A1.5,1.5,0,0,0,20-18.5,1.5,1.5,0,0,0,18.5-20Z" fill="#fff" clip-rule="evenodd"/>
    </clipPath>
  </defs>
  <g id="Group_273" data-name="Group 273" transform="translate(-2 22)" clip-path="url(#clip-path)">
    <path id="Path_81" data-name="Path 81" d="M-3-27H27V3H-3Z" fill="#fff"/>
  </g>
</svg>
