<svg xmlns="http://www.w3.org/2000/svg" width="17" height="20" viewBox="0 0 17 20">
  <path id="Shape_4" data-name="Shape 4" d="M35.731,327.455a4.9,4.9,0,0,0,.869-2.788V323a5.1,5.1,0,0,0-10.2,0v1.667a4.9,4.9,0,0,0,.869,2.788A8.3,8.3,0,0,0,23,334.667v.833a2.528,2.528,0,0,0,2.55,2.5h11.9A2.528,2.528,0,0,0,40,335.5v-.833A8.3,8.3,0,0,0,35.731,327.455ZM28.1,323a3.4,3.4,0,0,1,6.8,0v1.667a3.4,3.4,0,0,1-6.8,0V323Zm10.2,12.5a.843.843,0,0,1-.85.833H25.55a.843.843,0,0,1-.85-.833v-.833a6.662,6.662,0,0,1,3.788-5.974,5.144,5.144,0,0,0,6.025,0,6.661,6.661,0,0,1,3.788,5.974v.833Z" transform="translate(-23 -318)" fill="#fff"/>
</svg>
