<svg xmlns="http://www.w3.org/2000/svg" width="23" height="18" viewBox="0 0 23 18">
  <path id="Shape_6" data-name="Shape 6" d="M36.586,559H20.414A3.421,3.421,0,0,0,17,562.42v11.16A3.421,3.421,0,0,0,20.414,577H36.586A3.421,3.421,0,0,0,40,573.58V562.42A3.421,3.421,0,0,0,36.586,559Zm0,16.56H20.414a1.981,1.981,0,0,1-1.977-1.98V562.42a1.981,1.981,0,0,1,1.977-1.98H36.586a1.981,1.981,0,0,1,1.977,1.98v3.06H34.609a2.52,2.52,0,0,0,0,5.04h3.953v3.06A1.981,1.981,0,0,1,36.586,575.56Zm1.977-6.48H34.609a1.08,1.08,0,0,1,0-2.16h3.953Z" transform="translate(-17 -559)" fill="#fff"/>
</svg>
