<svg xmlns="http://www.w3.org/2000/svg" xmlns:xlink="http://www.w3.org/1999/xlink" width="20" height="20" viewBox="0 0 20 20">
  <defs>
    <clipPath id="clip-path">
      <rect id="crop" width="20" height="20" fill="none"/>
    </clipPath>
    <clipPath id="clip-path-2">
      <path id="Path_44" data-name="Path 44" d="M0,17V3A3,3,0,0,1,3,0H17a3,3,0,0,1,3,3V17a3,3,0,0,1-3,3H3A3,3,0,0,1,0,17Zm8.3,1H17a1,1,0,0,0,1-1V13.7H8.3Zm-2,0V13.7H2V17a1,1,0,0,0,1,1Zm2-16V6.3H18V3a1,1,0,0,0-1-1Zm-2,0H3A1,1,0,0,0,2,3V6.3H6.3Zm2,9.7H18V8.3H8.3Zm-2,0V8.3H2v3.4Z" fill="none" clip-rule="evenodd"/>
    </clipPath>
    <clipPath id="clip-path-3">
      <rect id="Rectangle_74" data-name="Rectangle 74" width="1600" height="2178" transform="translate(-22 -270)" fill="none"/>
    </clipPath>
  </defs>
  <g id="Vector_Smart_Object" data-name="Vector Smart Object" transform="translate(-20 -198)">
    <g id="Vector_Smart_Object-2" data-name="Vector Smart Object" transform="translate(20 198)" clip-path="url(#clip-path)">
      <g id="Group_146" data-name="Group 146">
        <g id="Group_145" data-name="Group 145" clip-path="url(#clip-path-2)">
          <g id="Group_144" data-name="Group 144">
            <g id="Group_143" data-name="Group 143" clip-path="url(#clip-path-3)">
              <rect id="Rectangle_73" data-name="Rectangle 73" width="30" height="30" transform="translate(-5 -5)" fill="#92929d"/>
            </g>
          </g>
        </g>
      </g>
    </g>
    <path id="Color_Overlay" data-name="Color Overlay" d="M23,218a3,3,0,0,1-3-3V201a3,3,0,0,1,3-3H37a3,3,0,0,1,3,3v14a3,3,0,0,1-3,3Zm5.3-2H37a1,1,0,0,0,1-1v-3.3H28.3ZM22,215a1,1,0,0,0,1,1h3.3v-4.3H22Zm6.3-5.3H38v-3.4H28.3Zm-6.3,0h4.3v-3.4H22Zm6.3-5.4H38V201a1,1,0,0,0-1-1H28.3ZM22,201v3.3h4.3V200H23A1,1,0,0,0,22,201Z" fill="#fff"/>
  </g>
</svg>
