<svg xmlns="http://www.w3.org/2000/svg" xmlns:xlink="http://www.w3.org/1999/xlink" width="20" height="20" viewBox="0 0 20 20">
  <defs>
    <clipPath id="clip-path">
      <rect id="crop" width="20" height="20" fill="none"/>
    </clipPath>
    <clipPath id="clip-path-2">
      <path id="Path_59" data-name="Path 59" d="M11,4h.953a1,1,0,0,1,1,1v.454A1,1,0,0,1,11.115,6h-2.1V7H11a2,2,0,0,1,2,2v1a2,2,0,0,1-2,2,1,1,0,0,1-2,0H8a1,1,0,0,1-1-1.025l.014-.55A1,1,0,0,1,8.907,10H11V9H9.014a2,2,0,0,1-2-2V6A2,2,0,0,1,9,4a1,1,0,0,1,2,0Zm7,9V3a1,1,0,0,0-1-1H3A1,1,0,0,0,2,3V13a1,1,0,0,0,1,1H17A1,1,0,0,0,18,13Zm0,2.829A2.983,2.983,0,0,1,17,16H3a2.983,2.983,0,0,1-1-.171v1.353A.809.809,0,0,0,2.8,18H17.2a.809.809,0,0,0,.8-.818ZM20,3V17.182A2.809,2.809,0,0,1,17.2,20H2.8A2.809,2.809,0,0,1,0,17.182V3A3,3,0,0,1,3,0H17A3,3,0,0,1,20,3Z" fill="none" clip-rule="evenodd"/>
    </clipPath>
    <clipPath id="clip-path-3">
      <rect id="Rectangle_96" data-name="Rectangle 96" width="1600" height="2178" transform="translate(-22 -332)" fill="none"/>
    </clipPath>
  </defs>
  <g id="Vector_Smart_Object" data-name="Vector Smart Object" transform="translate(-20 -438)">
    <g id="Vector_Smart_Object-2" data-name="Vector Smart Object" transform="translate(20 438)" clip-path="url(#clip-path)">
      <g id="Group_190" data-name="Group 190">
        <g id="Group_189" data-name="Group 189" clip-path="url(#clip-path-2)">
          <g id="Group_188" data-name="Group 188">
            <g id="Group_187" data-name="Group 187" clip-path="url(#clip-path-3)">
              <rect id="Rectangle_95" data-name="Rectangle 95" width="30" height="30" transform="translate(-5 -5)" fill="#92929d"/>
            </g>
          </g>
        </g>
      </g>
    </g>
    <path id="Color_Overlay" data-name="Color Overlay" d="M22.8,458a2.809,2.809,0,0,1-2.8-2.818V441a3,3,0,0,1,3-3H37a3,3,0,0,1,3,3v14.182A2.809,2.809,0,0,1,37.2,458Zm-.8-2.818a.809.809,0,0,0,.8.818H37.2a.809.809,0,0,0,.8-.818v-1.353A2.991,2.991,0,0,1,37,454H23a2.991,2.991,0,0,1-1-.171ZM22,441v10a1,1,0,0,0,1,1H37a1,1,0,0,0,1-1V441a1,1,0,0,0-1-1H23A1,1,0,0,0,22,441Zm7,9H28a1,1,0,0,1-1-1.025l.014-.55A1,1,0,0,1,28.907,448H31v-1H29.014a2,2,0,0,1-2-2v-1A2,2,0,0,1,29,442a1,1,0,1,1,2,0h.953a1,1,0,0,1,1,1v.454a1,1,0,0,1-1.838.546h-2.1v1H31a2,2,0,0,1,2,2v1a2,2,0,0,1-2,2,1,1,0,0,1-2,0Z" fill="#fff"/>
  </g>
</svg>
