<svg xmlns="http://www.w3.org/2000/svg" xmlns:xlink="http://www.w3.org/1999/xlink" width="20" height="20" viewBox="0 0 20 20">
  <defs>
    <clipPath id="clip-path">
      <rect id="crop" width="20" height="20" fill="none"/>
    </clipPath>
    <clipPath id="clip-path-2">
      <path id="Path_63" data-name="Path 63" d="M17.973,5.428,16.93,2H3.07L2.026,5.428A.613.613,0,0,0,2,5.6a.76.76,0,0,0,.808.7h.48A.866.866,0,0,0,4.2,5.5a1,1,0,0,1,2,0,.867.867,0,0,0,.918.8h.959A.866.866,0,0,0,9,5.5a1,1,0,0,1,2,0,.866.866,0,0,0,.918.8h.958a.866.866,0,0,0,.918-.8,1,1,0,0,1,2,0,.866.866,0,0,0,.918.8h.479a.947.947,0,0,0,.238-.031A.688.688,0,0,0,17.973,5.428ZM11.5,18V13H9v5ZM19.1,7.582V18.1A1.9,1.9,0,0,1,17.2,20H2.8A1.9,1.9,0,0,1,.9,18.1V7.582A2.636,2.636,0,0,1,0,5.6a2.6,2.6,0,0,1,.113-.758L1.156,1.418A2,2,0,0,1,3.07,0H16.93a2,2,0,0,1,1.913,1.418l1.044,3.427A2.625,2.625,0,0,1,19.1,7.582Zm-2,.718h-.388a2.987,2.987,0,0,1-1.918-.689,2.987,2.987,0,0,1-1.918.689h-.958A2.987,2.987,0,0,1,10,7.611,2.987,2.987,0,0,1,8.082,8.3H7.123A2.989,2.989,0,0,1,5.2,7.611,2.984,2.984,0,0,1,3.288,8.3H2.9V18H7V12a1,1,0,0,1,1-1h4.5a1,1,0,0,1,1,1v6h3.6Z" fill="none" clip-rule="evenodd"/>
    </clipPath>
    <clipPath id="clip-path-3">
      <rect id="Rectangle_102" data-name="Rectangle 102" width="1600" height="2178" transform="translate(-22 -394)" fill="none"/>
    </clipPath>
  </defs>
  <g id="Vector_Smart_Object" data-name="Vector Smart Object" transform="translate(-20 -498)">
    <g id="Vector_Smart_Object-2" data-name="Vector Smart Object" transform="translate(20 498)" clip-path="url(#clip-path)">
      <g id="Group_202" data-name="Group 202">
        <g id="Group_201" data-name="Group 201" clip-path="url(#clip-path-2)">
          <g id="Group_200" data-name="Group 200">
            <g id="Group_199" data-name="Group 199" clip-path="url(#clip-path-3)">
              <rect id="Rectangle_101" data-name="Rectangle 101" width="30.001" height="30" transform="translate(-5 -5)" fill="#92929d"/>
            </g>
          </g>
        </g>
      </g>
    </g>
    <path id="Color_Overlay" data-name="Color Overlay" d="M22.8,518a1.9,1.9,0,0,1-1.9-1.9V505.581A2.635,2.635,0,0,1,20,503.6a2.583,2.583,0,0,1,.113-.759l1.042-3.426A2,2,0,0,1,23.07,498H36.93a2,2,0,0,1,1.913,1.418l1.044,3.426a2.586,2.586,0,0,1,.112.681v.158a2.652,2.652,0,0,1-.9,1.9V516.1a1.9,1.9,0,0,1-1.9,1.9Zm9.7-9a1,1,0,0,1,1,1v6h3.6v-9.7h-.388a2.99,2.99,0,0,1-1.918-.688,2.99,2.99,0,0,1-1.918.688h-.959A2.99,2.99,0,0,1,30,505.611a2.99,2.99,0,0,1-1.918.688h-.959a2.993,2.993,0,0,1-1.918-.688,2.987,2.987,0,0,1-1.917.688H22.9V516H27v-6a1,1,0,0,1,1-1ZM29,516h2.5v-5H29Zm6.794-12.5a.866.866,0,0,0,.918.8h.479a.962.962,0,0,0,.238-.031.689.689,0,0,0,.544-.841L36.93,500H23.07l-1.044,3.428A.609.609,0,0,0,22,503.6a.76.76,0,0,0,.808.7h.48a.865.865,0,0,0,.917-.8,1,1,0,0,1,2,0,.867.867,0,0,0,.918.8h.959a.866.866,0,0,0,.918-.8,1,1,0,0,1,2,0,.866.866,0,0,0,.918.8h.959a.866.866,0,0,0,.918-.8,1,1,0,0,1,2,0Z" fill="#fff"/>
  </g>
</svg>
