<svg xmlns="http://www.w3.org/2000/svg" xmlns:xlink="http://www.w3.org/1999/xlink" width="21" height="20" viewBox="0 0 21 20">
  <defs>
    <clipPath id="clip-path">
      <rect id="crop" width="21" height="20" fill="none"/>
    </clipPath>
    <clipPath id="clip-path-2">
      <path id="Path_70" data-name="Path 70" d="M16.864,14.762A10.5,10.5,0,0,1,10.5,16.516,14.8,14.8,0,0,1,7.919,16.3l-.457-.082-.3.369a4.6,4.6,0,0,1-2.036,1.438,13.206,13.206,0,0,0,.467-1.669l.14-.659-.577-.3c-2.332-1.206-3.513-3.319-3.513-6.282a6.661,6.661,0,0,1,2.5-5.644A10.5,10.5,0,0,1,10.5,1.72a10.5,10.5,0,0,1,6.364,1.754,6.661,6.661,0,0,1,2.5,5.644A6.661,6.661,0,0,1,16.864,14.762Zm3.292-9.8A7.632,7.632,0,0,0,17.825,2.08,12.049,12.049,0,0,0,10.5,0,12.049,12.049,0,0,0,3.175,2.08,7.632,7.632,0,0,0,.844,4.962,9.782,9.782,0,0,0,0,9.118,8.265,8.265,0,0,0,3.839,16.61a9.324,9.324,0,0,1-.8,2.074L2.257,20l1.475,0H3.75a6.2,6.2,0,0,0,4.337-1.931,16.8,16.8,0,0,0,2.413.168,12.049,12.049,0,0,0,7.325-2.08,7.636,7.636,0,0,0,2.331-2.881A9.787,9.787,0,0,0,21,9.118,9.782,9.782,0,0,0,20.156,4.962Z" fill="none"/>
    </clipPath>
    <clipPath id="clip-path-3">
      <rect id="Rectangle_112" data-name="Rectangle 112" width="1460.87" height="954.286" transform="translate(-1374.13 -24.762)" fill="none"/>
    </clipPath>
    <clipPath id="clip-path-4">
      <rect id="Rectangle_114" data-name="Rectangle 114" width="1.826" height="1.905" transform="translate(10.043 13.333)" fill="none"/>
    </clipPath>
    <clipPath id="clip-path-5">
      <path id="Path_71" data-name="Path 71" d="M10.86,3.831a3.02,3.02,0,0,0-2.51.89A3.712,3.712,0,0,0,7.3,7.336H8.9a1.8,1.8,0,0,1,.514-1.285,1.505,1.505,0,0,1,1.27-.445,1.687,1.687,0,0,1,1.4,1.549,1.853,1.853,0,0,1-.678,1.655A4.5,4.5,0,0,0,9.7,12.381h1.6a2.646,2.646,0,0,1,1.013-2.1,3.721,3.721,0,0,0,1.363-3.326A3.4,3.4,0,0,0,10.86,3.831Z" fill="none"/>
    </clipPath>
  </defs>
  <g id="Vector_Smart_Object" data-name="Vector Smart Object" transform="translate(-19 -618)">
    <g id="Vector_Smart_Object-2" data-name="Vector Smart Object" transform="translate(19 618)" clip-path="url(#clip-path)">
      <g id="Group_222" data-name="Group 222">
        <g id="Group_221" data-name="Group 221" clip-path="url(#clip-path-2)">
          <g id="Group_220" data-name="Group 220">
            <g id="Group_219" data-name="Group 219" clip-path="url(#clip-path-3)">
              <rect id="Rectangle_111" data-name="Rectangle 111" width="30.13" height="29.524" transform="translate(-4.565 -4.762)" fill="#92929d"/>
            </g>
          </g>
        </g>
      </g>
      <g id="Group_224" data-name="Group 224">
        <g id="Group_223" data-name="Group 223" clip-path="url(#clip-path-4)">
          <rect id="Rectangle_113" data-name="Rectangle 113" width="10.957" height="11.429" transform="translate(5.478 8.571)" fill="#92929d"/>
        </g>
      </g>
      <g id="Group_228" data-name="Group 228">
        <g id="Group_227" data-name="Group 227" clip-path="url(#clip-path-5)">
          <g id="Group_226" data-name="Group 226">
            <g id="Group_225" data-name="Group 225" clip-path="url(#clip-path-3)">
              <rect id="Rectangle_115" data-name="Rectangle 115" width="15.522" height="18.095" transform="translate(2.739 -0.952)" fill="#92929d"/>
            </g>
          </g>
        </g>
      </g>
    </g>
    <path id="Color_Overlay" data-name="Color Overlay" d="M22.736,638h0l-1.475,0,.778-1.313a9.359,9.359,0,0,0,.8-2.075A8.265,8.265,0,0,1,19,627.118a9.8,9.8,0,0,1,.843-4.156,7.637,7.637,0,0,1,2.331-2.882A12.052,12.052,0,0,1,29.5,618a12.051,12.051,0,0,1,7.325,2.08,7.637,7.637,0,0,1,2.331,2.882,10.666,10.666,0,0,1,0,8.313,7.641,7.641,0,0,1-2.331,2.881,12.051,12.051,0,0,1-7.325,2.08,16.788,16.788,0,0,1-2.414-.167A6.193,6.193,0,0,1,22.75,638Zm.4-16.526a6.66,6.66,0,0,0-2.5,5.644c0,2.963,1.182,5.076,3.514,6.282l.577.3-.139.66a13.144,13.144,0,0,1-.468,1.669,4.61,4.61,0,0,0,2.037-1.438l.3-.369.457.082a14.761,14.761,0,0,0,2.581.215,10.5,10.5,0,0,0,6.364-1.754,7.631,7.631,0,0,0,0-11.288A10.5,10.5,0,0,0,29.5,619.72,10.5,10.5,0,0,0,23.136,621.474Zm5.907,11.764v-1.9h1.826v1.9Zm-.342-2.857a4.5,4.5,0,0,1,1.708-3.571,1.852,1.852,0,0,0,.679-1.655,1.686,1.686,0,0,0-1.4-1.548,1.506,1.506,0,0,0-1.271.445,1.8,1.8,0,0,0-.514,1.284H26.3a3.707,3.707,0,0,1,1.046-2.615,3.016,3.016,0,0,1,2.509-.89,3.4,3.4,0,0,1,2.816,3.127,3.719,3.719,0,0,1-1.363,3.326,2.648,2.648,0,0,0-1.013,2.1Z" fill="#fff"/>
  </g>
</svg>
