<svg xmlns="http://www.w3.org/2000/svg" xmlns:xlink="http://www.w3.org/1999/xlink" width="20" height="5" viewBox="0 0 20 5">
  <defs>
    <clipPath id="clip-path">
      <rect id="crop" width="20" height="5" fill="none"/>
    </clipPath>
    <clipPath id="clip-path-2">
      <path id="Path_5" data-name="Path 5" d="M0,2.5A2.373,2.373,0,0,1,2.222,0,2.373,2.373,0,0,1,4.444,2.5,2.373,2.373,0,0,1,2.222,5,2.373,2.373,0,0,1,0,2.5Zm7.778,0A2.373,2.373,0,0,1,10,0a2.373,2.373,0,0,1,2.222,2.5A2.373,2.373,0,0,1,10,5,2.373,2.373,0,0,1,7.778,2.5Zm7.778,0A2.373,2.373,0,0,1,17.778,0,2.373,2.373,0,0,1,20,2.5,2.373,2.373,0,0,1,17.778,5,2.373,2.373,0,0,1,15.556,2.5Z" fill="none" clip-rule="evenodd"/>
    </clipPath>
    <clipPath id="clip-path-3">
      <rect id="Rectangle_10" data-name="Rectangle 10" width="1777.778" height="1252.5" transform="translate(-585.556 -347.5)" fill="none"/>
    </clipPath>
  </defs>
  <g id="Vector_Smart_Object" data-name="Vector Smart Object" clip-path="url(#clip-path)">
    <g id="Group_20" data-name="Group 20">
      <g id="Group_19" data-name="Group 19" clip-path="url(#clip-path-2)">
        <g id="Group_18" data-name="Group 18">
          <g id="Group_17" data-name="Group 17" clip-path="url(#clip-path-3)">
            <rect id="Rectangle_9" data-name="Rectangle 9" width="31.111" height="17.5" transform="translate(-5.556 -6.25)" fill="#92929d"/>
          </g>
        </g>
      </g>
    </g>
  </g>
</svg>
